<svg width="118" height="17" viewBox="0 0 118 17" fill="none" xmlns="http://www.w3.org/2000/svg">
<path d="M7.54206 6.20618C6.82054 6.20618 5.90159 6.21326 4.81002 6.21326C4.05486 6.21326 3.34042 6.21326 2.68531 6.20618C2.03018 6.1991 1.45474 6.19999 0.989955 6.19999H0.724365V7.66339H0.989955C1.04838 7.66339 1.37772 7.66339 1.97706 7.65368C2.50824 7.64743 3.20586 7.64569 4.04778 7.64923C4.0584 8.47432 4.06371 9.10201 4.06371 9.51896V11.3896C4.06371 12.1864 4.06371 13.0088 4.05397 13.8365C4.04424 14.6643 4.03893 15.2194 4.03007 15.4876L4.02122 15.7621H5.68116L5.67673 15.4965C5.67673 15.2309 5.66699 14.6997 5.65991 13.8649C5.65283 13.0478 5.65017 12.2342 5.65017 11.448C5.65017 10.6265 5.65017 9.96958 5.65637 9.49599C5.66109 9.0639 5.66699 8.4501 5.67407 7.65451C6.60895 7.65451 7.33046 7.65451 7.82269 7.66159L8.7301 7.66784H8.99574V6.20618H8.7301H7.54206Z" fill="#F5FCFA"/>
<path d="M15.223 9.23062C14.9112 8.90133 14.5331 8.64187 14.1138 8.46925C13.6766 8.29621 13.2099 8.2102 12.7398 8.2161C12.2677 8.21437 11.8002 8.30766 11.3649 8.49049C10.9362 8.67193 10.5493 8.93951 10.2282 9.27664C9.87129 9.63716 9.59489 10.0692 9.41727 10.5444C9.24457 11.0323 9.15948 11.5469 9.16586 12.0645C9.16336 12.6195 9.26456 13.1702 9.46419 13.6881C9.65028 14.1837 9.94347 14.6319 10.3229 15.001C10.6401 15.3055 11.0143 15.544 11.4242 15.7031C11.8418 15.8635 12.2854 15.9454 12.7327 15.9448C13.1891 15.9516 13.6423 15.8689 14.0668 15.7013C14.4658 15.5366 14.8302 15.2981 15.1407 14.9983C15.5238 14.6277 15.8211 14.1778 16.0119 13.6801C16.2108 13.1709 16.3124 12.6288 16.3111 12.0822C16.3167 11.5517 16.2267 11.0245 16.0455 10.5258C15.863 10.0423 15.5831 9.60141 15.223 9.23062ZM12.7327 14.5504C12.5149 14.5518 12.2986 14.515 12.0936 14.4415C11.9012 14.3731 11.7241 14.2679 11.5721 14.1317C11.3003 13.8912 11.0925 13.587 10.9674 13.2463C10.8353 12.868 10.77 12.4696 10.7744 12.0689C10.7738 11.6987 10.8382 11.3313 10.9648 10.9835C11.0713 10.6703 11.244 10.3837 11.4711 10.1434C11.6297 9.97193 11.8208 9.8338 12.0333 9.73704C12.2584 9.64729 12.4993 9.60426 12.7416 9.61043C12.9667 9.61002 13.19 9.65118 13.4002 9.7317C13.6004 9.8068 13.783 9.92216 13.9367 10.0708C14.1976 10.323 14.3936 10.6347 14.5077 10.9791C14.635 11.3495 14.7 11.7384 14.6999 12.13C14.7012 12.4953 14.638 12.8579 14.513 13.2012C14.3992 13.5202 14.218 13.8109 13.9819 14.0537C13.8246 14.2148 13.6356 14.3414 13.4268 14.4256C13.2056 14.5113 12.9699 14.5537 12.7327 14.5504Z" fill="#F5FCFA"/>
<path d="M27.8366 12.7406C27.8366 12.3785 27.8366 12.0324 27.8472 11.7083C27.8578 11.3843 27.857 10.9736 27.857 10.4964C27.857 9.81022 27.656 9.25695 27.2585 8.84173C26.861 8.42651 26.3041 8.21585 25.611 8.21585C25.2684 8.21585 24.8735 8.30435 24.4034 8.48142C23.9722 8.65231 23.5556 8.85804 23.1578 9.09668C23.0026 8.86797 22.8 8.67528 22.5638 8.53188C22.1869 8.31039 21.755 8.20023 21.3182 8.21405C20.9295 8.21405 20.4833 8.32913 19.9902 8.55666C19.7087 8.68681 19.4528 8.82223 19.2253 8.95328L19.2306 8.39021H17.6371V8.66022C17.6504 9.44373 17.6583 10.1591 17.661 10.785C17.6636 11.4108 17.661 11.9084 17.661 12.2785C17.661 13.3993 17.661 14.2155 17.6468 14.7033C17.6327 15.1911 17.6336 15.4558 17.6336 15.4956V15.7613H19.2333V15.4956C19.2333 15.4514 19.2279 15.1053 19.2164 14.3005C19.205 13.5595 19.1996 12.9123 19.1996 12.3767C19.1996 12.0621 19.2017 11.6567 19.2058 11.1603C19.2058 10.8283 19.2111 10.5902 19.212 10.445C19.5388 10.2418 19.8796 10.0618 20.2319 9.90678C20.4758 9.78836 20.741 9.72027 21.0118 9.70666C21.1896 9.69618 21.3676 9.72332 21.5342 9.78635C21.6389 9.8357 21.728 9.91288 21.7918 10.0094C21.8612 10.1166 21.9071 10.2373 21.9264 10.3636C21.9565 10.539 21.9731 10.7167 21.9759 10.8947C21.9804 11.1072 21.9839 11.4462 21.9865 11.9013C21.9892 12.3564 21.9865 12.6981 21.9865 12.9239C21.9865 13.5931 21.9813 14.1836 21.9724 14.6767C21.9724 14.953 21.9591 15.4266 21.9591 15.4992V15.7648H23.5588V15.4992C23.5588 15.454 23.5535 15.2035 23.5411 14.6635C23.5305 14.1615 23.5243 13.5294 23.5243 12.7857C23.5243 12.4422 23.5243 12.0775 23.5314 11.7119C23.5385 11.3462 23.5385 10.9585 23.5385 10.5982C23.5385 10.4982 23.5385 10.4149 23.5385 10.3485C23.8483 10.1624 24.1742 10.0045 24.5123 9.87665C24.7647 9.77607 25.0323 9.71888 25.3038 9.70757C25.6464 9.70757 25.8951 9.78544 26.043 9.93773C26.1475 10.0457 26.275 10.2971 26.2891 10.8805C26.2891 11.1081 26.297 11.456 26.2997 11.9146C26.3024 12.3732 26.2997 12.7114 26.2997 12.9105C26.2997 13.4179 26.2997 13.9729 26.29 14.5502C26.2811 15.315 26.2758 15.4531 26.2741 15.4753L26.2484 15.7648H27.872V15.4992C27.872 15.4726 27.872 15.3513 27.8552 14.6555C27.8455 14.1385 27.8366 13.4939 27.8366 12.7406Z" fill="#F5FCFA"/>
<path d="M35.2261 9.23158C34.9149 8.90173 34.5371 8.64193 34.1178 8.4693C33.6803 8.29633 33.2133 8.21033 32.7429 8.21609C32.2711 8.21443 31.8038 8.30771 31.3689 8.49054C30.9382 8.67122 30.5494 8.93887 30.2269 9.27669C29.8715 9.63742 29.5969 10.0696 29.4212 10.5445C29.2462 11.0322 29.1593 11.5472 29.1645 12.0654C29.1622 12.6204 29.2633 13.1711 29.4629 13.689C29.6489 14.1845 29.9421 14.6329 30.3216 15.0019C30.6387 15.3064 31.013 15.545 31.4229 15.704C31.8419 15.8647 32.2871 15.9463 32.7358 15.9448C33.1922 15.9517 33.6454 15.8689 34.0699 15.7013C34.4689 15.5367 34.8333 15.2982 35.1438 14.9984C35.5269 14.6278 35.8242 14.1779 36.0149 13.6802C36.2139 13.171 36.3154 12.6289 36.3141 12.0822C36.3198 11.5517 36.2298 11.0245 36.0486 10.5259C35.8662 10.0425 35.5863 9.60188 35.2261 9.23158ZM32.7473 9.60605C32.9724 9.60556 33.1957 9.64672 33.406 9.72731C33.6062 9.80221 33.7889 9.91764 33.9424 10.0664C34.2034 10.3186 34.3993 10.6303 34.5135 10.9747C34.6408 11.3451 34.7058 11.734 34.7056 12.1256C34.7069 12.4909 34.6437 12.8535 34.5188 13.1968C34.4051 13.5159 34.2239 13.8067 33.9876 14.0493C33.8303 14.2104 33.6413 14.337 33.4325 14.4212C33.0031 14.5865 32.5287 14.5931 32.0949 14.4398C31.9026 14.3712 31.7255 14.266 31.5734 14.1299C31.3018 13.8894 31.0944 13.5852 30.9696 13.2446C30.8368 12.8665 30.7711 12.4679 30.7758 12.0672C30.7751 11.6971 30.8396 11.3297 30.9661 10.9818C31.0728 10.6687 31.2455 10.3823 31.4724 10.1416C31.631 9.97018 31.8221 9.83205 32.0346 9.73529C32.2595 9.64471 32.5005 9.6007 32.7429 9.60605H32.7473Z" fill="#F5FCFA"/>
<path d="M48.2414 9.34113C47.7722 6.89862 47.6899 6.44447 47.6828 6.39046L47.6536 6.17887L46.2371 6.06556L46.1591 6.23465C46.1308 6.29485 45.7714 7.1129 45.0888 8.66569C44.4868 10.0361 43.9069 11.349 43.3625 12.5778C42.6542 11.0223 42.0274 9.62357 41.4954 8.41692L40.5393 6.24173L40.4587 6.05493L39.0006 6.26475L38.9608 6.44181C38.9254 6.60382 38.7147 7.62015 38.318 9.54832C37.9285 11.4428 37.5036 13.3834 37.0548 15.3151L36.991 15.5905L38.566 15.8773L38.6128 15.6117C38.9165 13.9075 39.2423 12.2325 39.5788 10.6328C39.7443 9.84846 39.8726 9.23937 39.9638 8.81C40.1577 9.23757 40.4313 9.84221 40.7819 10.6195C41.4246 12.0475 42.0213 13.3985 42.5586 14.6362L42.6303 14.7937H43.9131L43.9822 14.6326C44.5505 13.3046 45.1437 11.9563 45.7457 10.6328C46.0919 9.8706 46.3654 9.27297 46.5682 8.83214L47.866 15.8888L49.4941 15.5693L49.4401 15.3036C49.0045 13.2161 48.5999 11.2083 48.2414 9.34113Z" fill="#F5FCFA"/>
<path d="M55.1209 9.08167C54.7906 8.7934 54.3959 8.58878 53.97 8.48501C53.4827 8.36222 52.9816 8.30266 52.4792 8.30794C52.1304 8.30794 51.8488 8.31412 51.6426 8.32564L51.238 8.34868L51.0184 8.36368L50.8458 9.79611L51.1618 9.77841L51.7488 9.74746C51.8852 9.73857 52.0533 9.73413 52.249 9.73413C52.5215 9.73177 52.794 9.74773 53.0644 9.78195C53.2695 9.80902 53.4705 9.86136 53.6628 9.93778C53.8781 10.0179 54.0635 10.1622 54.194 10.3512C54.2855 10.4977 54.3482 10.6602 54.379 10.8301C53.9008 10.8724 53.425 10.9392 52.9537 11.0302C52.5362 11.1051 52.1267 11.2198 51.7311 11.3729C51.2699 11.5505 50.8584 11.8369 50.5315 12.2077C50.2469 12.5564 50.0858 12.9895 50.0735 13.4394C50.0612 13.8894 50.1983 14.3307 50.4633 14.6945C50.7215 15.0231 51.0558 15.2841 51.4372 15.4549C51.7665 15.6029 52.1134 15.7079 52.4695 15.7675C52.8529 15.8373 53.242 15.8728 53.6318 15.8737C54.225 15.8737 54.7189 15.8586 55.0996 15.8286L55.7335 15.7772L55.9726 15.7533V15.5134C55.9726 15.4591 55.9749 15.0811 55.9796 14.3793C55.984 13.6711 55.9867 12.7504 55.9867 11.6464C55.9867 10.9541 55.9168 10.4335 55.7733 10.0529C55.6359 9.682 55.4123 9.34911 55.1209 9.08167ZM54.4206 12.6928V13.2744C54.4206 13.7242 54.4206 14.0818 54.4206 14.3475C54.4206 14.4192 54.4206 14.4829 54.4206 14.5387L54.2621 14.544C54.1355 14.5484 54.0284 14.5502 53.9408 14.5502C53.6683 14.5512 53.3959 14.5349 53.1255 14.5015C52.8938 14.4745 52.6655 14.4232 52.4446 14.3483C52.2271 14.2817 52.0306 14.1597 51.8745 13.9942C51.7445 13.8364 51.679 13.6352 51.6912 13.4312C51.6887 13.3355 51.7063 13.2404 51.7431 13.1521C51.7799 13.0637 51.835 12.9842 51.9046 12.9186C52.0714 12.7565 52.2701 12.6308 52.488 12.5494C52.8737 12.4103 53.2736 12.3148 53.6805 12.2643C53.985 12.221 54.2329 12.19 54.4224 12.1705C54.4212 12.3611 54.4206 12.5352 54.4206 12.6928Z" fill="#F5FCFA"/>
<path d="M61.0307 11.7655C60.7957 11.6269 60.5531 11.5018 60.3038 11.391C59.9922 11.2467 59.7444 11.121 59.5646 11.0165C59.4348 10.9431 59.3176 10.8492 59.2176 10.7385C59.1449 10.66 59.1061 10.556 59.1096 10.449C59.1148 10.3542 59.1453 10.2624 59.1981 10.1834C59.2754 10.0702 59.3827 9.9807 59.5079 9.92489C59.6365 9.86221 59.7733 9.81814 59.9143 9.79391C60.0933 9.7606 60.2749 9.74428 60.457 9.74519C60.743 9.74519 61.0085 9.75407 61.2476 9.77087C61.6256 9.79919 61.6655 9.79919 61.684 9.79919H61.9726L61.854 8.36856H61.6096C61.6035 8.36856 61.5592 8.36856 61.3184 8.3553C61.1413 8.34641 60.9058 8.34204 60.627 8.34204C60.301 8.34322 59.9756 8.36772 59.6532 8.41548C59.3144 8.46302 58.9865 8.56971 58.6846 8.73067C58.3526 8.90143 58.0675 9.15103 57.8542 9.45748C57.6421 9.76594 57.5302 10.1322 57.5338 10.5066C57.5274 10.8671 57.6252 11.2218 57.8153 11.5282C58.015 11.8321 58.2822 12.0857 58.5961 12.2692C58.8598 12.4228 59.1326 12.56 59.4132 12.68C59.6573 12.7826 59.8921 12.9058 60.1153 13.0483C60.2393 13.1248 60.3512 13.2194 60.4473 13.3289C60.5066 13.4099 60.5355 13.5093 60.5287 13.6095C60.5335 13.7388 60.4948 13.866 60.4189 13.9707C60.3135 14.0968 60.1776 14.1937 60.0241 14.2523C59.8528 14.3217 59.6718 14.3647 59.4876 14.3798C59.2951 14.4031 59.1015 14.4161 58.9077 14.4187C58.6421 14.4187 58.3765 14.409 58.111 14.3895C57.7763 14.3647 57.6763 14.3558 57.6515 14.3532L57.3425 14.3178L57.4071 15.7343L57.6249 15.7652C57.6418 15.7652 57.6807 15.7732 58.0428 15.8042C58.2853 15.8255 58.5244 15.8361 58.751 15.8361C59.1914 15.8396 59.6306 15.793 60.0604 15.6971C60.4351 15.6156 60.794 15.4732 61.1227 15.2757C61.4165 15.0948 61.6639 14.8477 61.8452 14.5541C62.0351 14.2437 62.1334 13.8858 62.1284 13.5219C62.1362 13.1618 62.034 12.8079 61.8354 12.5073C61.6217 12.2068 61.3476 11.9541 61.0307 11.7655Z" fill="#F5FCFA"/>
<path d="M67.2619 14.3978C67.1512 14.3978 67.0565 14.3978 66.9768 14.3978C66.3845 14.3978 65.9498 14.2871 65.6851 14.0694C65.4355 13.8649 65.3089 13.5072 65.3089 13.007V11.3346C65.3089 11.1125 65.3089 10.7725 65.3186 10.2971C65.3186 10.0501 65.3248 9.85445 65.3266 9.71369H67.7488V8.39196H65.3292V6.78955H63.818V8.39196H62.6211V9.71369H63.7569C63.7569 10.4397 63.7569 11.0646 63.7463 11.5728C63.7401 12.1456 63.7366 12.6883 63.7366 13.1849C63.7366 14.0623 64.0083 14.7289 64.544 15.1654C65.0637 15.5885 65.825 15.8028 66.8077 15.8028C66.9006 15.8028 67.0104 15.8028 67.1388 15.7957C67.2258 15.7948 67.3127 15.7895 67.3991 15.7797L67.5965 15.7523L67.7894 14.3925H67.4831L67.2619 14.3978Z" fill="#F5FCFA"/>
<path d="M74.7319 11.8264C74.7382 11.2845 74.6611 10.7449 74.5022 10.2267C74.3661 9.79643 74.1392 9.40037 73.8365 9.06519C73.5749 8.78234 73.2521 8.56286 72.8932 8.42334C72.5052 8.28008 72.0943 8.20983 71.6813 8.21622C71.2246 8.21643 70.7727 8.30854 70.3528 8.48706C69.9349 8.66059 69.5623 8.92803 69.2641 9.26884C68.9462 9.63436 68.6967 10.0542 68.5276 10.5082C68.3581 10.9846 68.2744 11.4873 68.2806 11.9929C68.2746 12.5252 68.3887 13.052 68.6144 13.5342C68.8099 13.9576 69.0821 14.3413 69.4173 14.6656C69.8224 15.0415 70.3035 15.3257 70.8283 15.4986C71.4641 15.7068 72.1297 15.8067 72.7981 15.7943C73.0765 15.7943 73.3215 15.7881 73.5297 15.7766C73.8067 15.7616 73.8768 15.7554 73.9066 15.7518L74.1093 15.7262L74.303 14.2938L73.9712 14.3247C73.9226 14.3292 73.7942 14.338 73.5825 14.3513C73.3708 14.3646 73.1403 14.3708 72.8932 14.3708C72.5101 14.3771 72.1283 14.3379 71.7542 14.2539C71.4661 14.1846 71.1913 14.0692 70.94 13.9122C70.5916 13.698 70.3084 13.3917 70.1229 13.0269C69.978 12.7354 69.888 12.4197 69.8573 12.0955H74.7326L74.7319 11.8264ZM70.0149 10.8101C70.1231 10.4889 70.3049 10.1976 70.5458 9.95934C70.6901 9.82267 70.8595 9.71605 71.0455 9.64567C71.2308 9.57536 71.4287 9.5426 71.6272 9.54947C72.061 9.54947 72.3983 9.67871 72.6572 9.94608C72.8807 10.1886 73.0335 10.4873 73.1001 10.8101H70.0149Z" fill="#F5FCFA"/>
<path d="M80.205 8.18213L79.9391 8.25119C79.5199 8.3694 79.1097 8.51732 78.7113 8.69383C78.335 8.85493 77.9519 9.03908 77.5667 9.24356V8.38925H75.9834V8.65489C75.9931 9.31797 75.9994 10.0333 76.0042 10.7796C76.0084 11.5259 76.0112 12.1164 76.0112 12.5351C76.0112 13.5629 76.0112 14.2995 75.998 14.7271C75.9917 15.0184 75.9834 15.3876 75.9834 15.4894V15.755H77.5833V15.4894C77.5833 15.4097 77.5778 15.0334 77.5667 14.2685C77.5549 13.5452 77.55 12.9096 77.55 12.3802C77.55 12.0332 77.55 11.6551 77.5556 11.2577C77.5556 11.031 77.5556 10.8592 77.5618 10.7442C78.1587 10.4662 78.6946 10.2378 79.1555 10.0669C79.5185 9.92615 79.8885 9.80531 80.264 9.7048L80.5166 9.64462L80.205 8.18213Z" fill="#F5FCFA"/>
<path d="M99.2892 6.59998C99.2892 7.01251 99.2892 7.42509 99.2892 7.8394C99.2892 7.93852 99.2308 8.08283 99.3433 8.12802C99.4391 8.16696 99.4995 8.03063 99.5668 7.96511C99.8632 7.6783 100.146 7.37817 100.452 7.09927C100.516 7.03167 100.598 6.98301 100.688 6.95879C100.779 6.93447 100.874 6.93544 100.963 6.96156C101.053 6.98773 101.134 7.03798 101.197 7.10691C101.26 7.17583 101.303 7.26079 101.321 7.35249C101.374 7.54989 101.303 7.69954 101.163 7.84031C100.588 8.41753 100.021 9.00447 99.4446 9.57989C99.3898 9.62875 99.3475 9.689 99.3197 9.7564C99.2919 9.8238 99.2794 9.89661 99.2829 9.96942C99.2912 10.4643 99.2829 10.9592 99.2885 11.4541C99.2885 11.5302 99.2496 11.6356 99.353 11.6701C99.4356 11.6967 99.48 11.609 99.53 11.5585C100.196 10.8954 100.858 10.2306 101.528 9.56837C101.824 9.27712 102.258 9.35416 102.399 9.72065C102.492 9.96498 102.399 10.1633 102.222 10.3404C101.602 10.9548 100.982 11.5745 100.362 12.1924C99.9708 12.5828 99.5814 12.975 99.1892 13.3645C98.89 13.662 98.6325 13.6682 98.3361 13.3734C97.3075 12.3494 96.2809 11.3234 95.2571 10.2952C95.0197 10.0571 95.01 9.76404 95.2168 9.54893C95.4243 9.33376 95.736 9.3205 95.9817 9.56483C96.6557 10.2315 97.3241 10.9043 97.9953 11.5745C98.0453 11.624 98.089 11.7179 98.1668 11.694C98.2716 11.6613 98.2216 11.5523 98.2223 11.478C98.2223 10.9751 98.2223 10.4723 98.2223 9.97296C98.2258 9.8996 98.2133 9.8263 98.1855 9.75841C98.1571 9.69046 98.1147 9.62952 98.0606 9.57989C97.4914 9.01863 96.9229 8.45467 96.3642 7.88279C96.0359 7.54545 96.1448 7.08602 96.5689 6.96115C96.7973 6.89567 96.9681 7.01431 97.1194 7.16126C97.4088 7.44279 97.6913 7.7314 97.9808 8.01383C98.0349 8.06693 98.0793 8.17848 98.1723 8.13246C98.2653 8.08637 98.2154 7.98371 98.2161 7.90666C98.2161 7.04083 98.2161 6.17503 98.2216 5.30921C98.2216 4.94181 98.4083 4.72049 98.7054 4.70721C99.0407 4.69305 99.276 4.9064 99.2808 5.24281C99.2857 5.69698 99.2808 6.15024 99.2808 6.60352L99.2892 6.59998Z" fill="#F5FCFA"/>
<path d="M117.92 8.68496C117.731 7.23739 117.064 5.89414 116.027 4.86757C114.321 3.16869 112.256 2.47727 109.874 2.87211C108.079 3.17046 106.628 4.08763 105.524 5.53774C104.577 6.77716 104.131 8.19366 104.119 9.7491C104.126 10.2985 104.039 10.8451 103.861 11.3648C103.093 13.4541 101.627 14.7289 99.4014 15.0202C97.7252 15.2424 96.255 14.7245 95.0271 13.5648C94.3441 12.9169 93.8492 12.0957 93.5959 11.1886C93.3981 10.5613 93.3377 9.89889 93.4189 9.24628C93.5431 8.38045 93.911 7.60311 94.3608 6.86304C94.8758 6.03635 95.4624 5.25637 96.1134 4.53205C96.8922 3.66488 97.7217 2.84538 98.5991 2.078C98.6157 2.05758 98.6372 2.04103 98.6608 2.02946C98.6851 2.01789 98.7115 2.01156 98.7379 2.01088C98.7642 2.01022 98.7913 2.01522 98.8156 2.02557C98.8399 2.03592 98.8621 2.05138 98.8802 2.07092C99.5215 2.61039 100.132 3.18494 100.71 3.79194C101.299 4.41165 101.877 5.03136 102.365 5.73959C102.428 5.82813 102.506 5.89452 102.572 5.73339C102.753 5.32283 102.973 4.93086 103.229 4.56303C103.264 4.52195 103.284 4.46988 103.284 4.41608C103.284 4.36226 103.264 4.31019 103.229 4.26911C103.116 4.12658 103.006 3.98051 102.885 3.84328C102.148 2.99181 101.361 2.1845 100.529 1.42553C100.007 0.958097 99.4695 0.508953 98.9183 0.0781076C98.8219 0.0028572 98.7476 -0.0414078 98.6227 0.0559751C97.8855 0.62147 97.1803 1.22643 96.5084 1.86818C95.041 3.28466 93.6757 4.78967 92.7095 6.60364C92.0078 7.91921 91.6385 9.28967 91.9023 10.7982C92.2327 12.6821 93.1482 14.2031 94.6912 15.3212C95.9996 16.2695 97.5988 16.7305 99.2113 16.6247C100.824 16.5188 102.349 15.8526 103.522 14.7413C104.947 13.3833 105.662 11.7012 105.701 9.7332C105.702 9.36782 105.737 9.00341 105.803 8.64428C106.032 7.49372 106.631 6.45025 107.511 5.67488C108.392 4.8995 109.502 4.43536 110.672 4.3541C112.396 4.22662 113.88 4.82242 115.043 6.11496C116.168 7.36413 116.606 8.83988 116.371 10.5078C116.209 11.6562 115.669 12.7181 114.838 13.5267C114.046 14.3182 113.079 14.7917 111.982 15.0042C111.69 15.0609 111.648 15.022 111.647 14.7271C111.655 14.6207 111.655 14.514 111.647 14.4076C111.603 14.1145 111.726 13.9127 111.934 13.7108C112.694 12.9734 113.439 12.2182 114.185 11.4675C114.422 11.2302 114.471 10.9806 114.337 10.7468C114.13 10.3857 113.717 10.3378 113.391 10.653C112.896 11.1382 112.41 11.6339 111.918 12.1226C111.861 12.1783 111.81 12.282 111.72 12.25C111.61 12.212 111.65 12.0925 111.65 12.0075C111.65 11.2834 111.65 10.5592 111.65 9.83496C111.657 9.6978 111.63 9.56113 111.57 9.43751C111.507 9.32305 111.407 9.23344 111.287 9.1834C111.166 9.13335 111.032 9.12585 110.906 9.16216C110.673 9.21796 110.498 9.45785 110.493 9.75528C110.486 10.144 110.493 10.5326 110.493 10.9212C110.493 11.2948 110.493 11.6685 110.493 12.0411C110.493 12.1137 110.525 12.2103 110.442 12.2492C110.344 12.2952 110.296 12.1925 110.242 12.1377C109.744 11.6442 109.247 11.1491 108.753 10.6521C108.658 10.5416 108.527 10.4685 108.383 10.4458C108.261 10.4296 108.138 10.4534 108.03 10.5138C107.923 10.5742 107.838 10.6678 107.789 10.7805C107.684 11.0027 107.736 11.2408 107.94 11.4462C108.619 12.1262 109.279 12.8246 109.987 13.4736C110.379 13.833 110.573 14.2101 110.5 14.7431C110.461 15.0211 110.454 15.0574 110.168 14.9998C109.172 14.7997 108.269 14.4031 107.512 13.7091C107.362 13.57 107.293 13.6072 107.218 13.7728C107.059 14.1184 106.872 14.4509 106.66 14.767C106.564 14.9131 106.572 15.0157 106.719 15.1096C106.77 15.1432 106.817 15.1831 106.866 15.2194C107.863 15.995 109.061 16.472 110.318 16.5951C110.365 16.5996 110.865 16.6571 111.09 16.6571C111.313 16.6571 111.785 16.5996 111.835 16.5942C113.648 16.388 115.163 15.5983 116.34 14.2039C117.679 12.614 118.218 10.769 117.92 8.68496Z" fill="#F5FCFA"/>
<path d="M93.2691 9.57038C93.2691 10.7826 92.9713 11.8468 92.3758 12.7627C91.7885 13.6728 90.9945 14.4311 90.0581 14.976C89.1967 15.48 88.2666 15.856 87.297 16.0924C86.176 16.3595 85.0265 16.4879 83.8743 16.4748C83.3926 16.4748 82.9206 16.4678 82.4583 16.4536C81.9953 16.4394 81.7406 16.4326 81.6941 16.4332C81.6941 16.399 81.7024 15.6052 81.7198 14.0518C81.7371 12.4984 81.7455 11.0258 81.7455 9.6341C81.7455 8.8964 81.7434 7.94908 81.7399 6.79231C81.7364 5.63552 81.7212 4.23026 81.6941 2.57652L82.6374 2.56589L83.5418 2.55615C84.9654 2.55615 86.2301 2.68334 87.3351 2.93772C88.3825 3.1694 89.3828 3.57839 90.2927 4.14703C91.2964 4.78799 92.0433 5.55791 92.5333 6.45678C93.0241 7.35568 93.2691 8.39352 93.2691 9.57038ZM91.513 9.55976C91.5241 8.71184 91.3256 7.87425 90.9348 7.12163C90.5503 6.38802 89.9408 5.75828 89.1086 5.23242C88.3159 4.7379 87.4399 4.39144 86.523 4.20989C85.6769 4.0278 84.8141 3.93082 83.9479 3.9204H83.4113C83.3974 5.00931 83.3884 5.91173 83.3856 6.62764C83.3829 7.34353 83.3808 7.91548 83.3808 8.34333C83.3808 8.6461 83.3822 9.35437 83.3856 10.4681C83.3891 11.5818 83.3947 13.1231 83.4009 15.092H83.9319C84.8391 15.0908 85.7428 14.9851 86.6251 14.7768C87.526 14.5667 88.2868 14.2758 88.9066 13.9039C89.6639 13.4602 90.3115 12.851 90.8001 12.1218C91.2756 11.4035 91.5137 10.548 91.5137 9.55532L91.513 9.55976Z" fill="#F5FCFA"/>
<path d="M87.7402 10.7738C87.4688 11.1341 87.194 11.4918 86.9288 11.8548C86.8643 11.9433 86.7213 12.0318 86.781 12.1389C86.8309 12.2275 86.9684 12.1469 87.0649 12.1301C87.489 12.0575 87.911 11.9654 88.3351 11.9035C88.7779 11.838 89.0438 12.2231 88.8584 12.6453C88.8203 12.7345 88.7592 12.8119 88.6814 12.87C88.6037 12.9279 88.5121 12.9644 88.4156 12.9755C87.5792 13.1349 86.7442 13.3084 85.9078 13.4651C85.8307 13.477 85.7565 13.5047 85.6905 13.5466C85.6239 13.5885 85.5677 13.6437 85.5232 13.7086C85.2046 14.145 84.8735 14.5735 84.5494 15.0073C84.5001 15.0737 84.3995 15.1419 84.4612 15.234C84.5091 15.3066 82.8808 15.079 82.9564 15.1047C83.0612 15.1383 83.638 14.4566 83.6873 14.3965C84.0219 13.96 84.3467 13.5165 84.6841 13.0826C84.7354 13.0219 84.7736 12.9512 84.7958 12.875C84.818 12.7988 84.8243 12.7188 84.8146 12.64C84.7313 11.8087 84.6514 10.9774 84.5862 10.1444C84.5473 9.65394 84.9402 9.31487 85.3539 9.46271C85.5788 9.54239 85.635 9.74778 85.6593 9.96643C85.703 10.3852 85.7377 10.8066 85.7814 11.2253C85.7891 11.3041 85.7509 11.428 85.8543 11.444C85.9584 11.4599 85.9876 11.3395 86.0383 11.2723C86.6109 10.5197 87.178 9.76278 87.752 9.00939C87.9957 8.69072 88.283 8.6075 88.5308 8.77394C88.8064 8.96246 88.8529 9.28918 88.6342 9.58571C88.3406 9.98503 88.0387 10.3781 87.7402 10.7738Z" fill="#F5FCFA"/>
</svg>
